<?xml version="1.0" encoding="utf-8"?>
<!-- Generator: Adobe Illustrator 16.0.0, SVG Export Plug-In . SVG Version: 6.00 Build 0)  -->
<!DOCTYPE svg PUBLIC "-//W3C//DTD SVG 1.1//EN" "http://www.w3.org/Graphics/SVG/1.1/DTD/svg11.dtd">
<svg version="1.1" xmlns="http://www.w3.org/2000/svg" xmlns:xlink="http://www.w3.org/1999/xlink" x="0px" y="0px"
	 width="20px" height="20px" viewBox="0 0 20 20" enable-background="new 0 0 20 20" xml:space="preserve">
<path  fill="#e233a6" d="M18.054,16.506c-0.297,0.29-0.654,0.435-1.071,0.435H3.018
	c-0.417,0-0.774-0.145-1.071-0.435C1.648,16.217,1.5,15.869,1.5,15.463V8.13C1.778,8.432,2.098,8.7,2.458,8.934
	c2.289,1.515,3.861,2.576,4.715,3.186c0.36,0.26,0.653,0.461,0.878,0.605s0.523,0.293,0.896,0.443s0.721,0.227,1.043,0.227H10h0.01
	c0.322,0,0.67-0.076,1.043-0.227s0.672-0.299,0.896-0.443s0.518-0.346,0.878-0.605c1.075-0.757,2.649-1.819,4.724-3.186
	c0.361-0.24,0.677-0.508,0.949-0.803v7.333C18.5,15.869,18.352,16.217,18.054,16.506z M16.878,7.945
	c-2.378,1.607-3.858,2.607-4.439,3.001c-0.063,0.043-0.198,0.137-0.403,0.282c-0.206,0.145-0.377,0.262-0.513,0.352
	c-0.136,0.089-0.3,0.188-0.493,0.299c-0.192,0.111-0.375,0.195-0.545,0.25c-0.171,0.055-0.329,0.083-0.475,0.083H10H9.99
	c-0.146,0-0.304-0.028-0.475-0.083c-0.17-0.055-0.353-0.139-0.545-0.25c-0.193-0.109-0.357-0.21-0.494-0.299
	c-0.136-0.09-0.306-0.207-0.512-0.352c-0.205-0.145-0.34-0.239-0.403-0.282c-0.575-0.394-1.403-0.956-2.485-1.686
	C3.995,8.532,3.347,8.093,3.132,7.946c-0.393-0.259-0.763-0.614-1.11-1.067S1.5,6.006,1.5,5.618c0-0.48,0.131-0.88,0.394-1.201
	c0.263-0.32,0.638-0.48,1.124-0.48h13.965c0.41,0,0.767,0.145,1.066,0.434C18.35,4.661,18.5,5.009,18.5,5.415
	c0,0.486-0.155,0.951-0.465,1.395C17.725,7.253,17.34,7.631,16.878,7.945z"/>
</svg>