<?xml version="1.0" encoding="utf-8"?>
<!-- Generator: Adobe Illustrator 16.0.0, SVG Export Plug-In . SVG Version: 6.00 Build 0)  -->
<!DOCTYPE svg PUBLIC "-//W3C//DTD SVG 1.1//EN" "http://www.w3.org/Graphics/SVG/1.1/DTD/svg11.dtd">
<svg version="1.1" xmlns="http://www.w3.org/2000/svg" xmlns:xlink="http://www.w3.org/1999/xlink" x="0px" y="0px"
	 width="20px" height="20px" viewBox="0 0 20 20" enable-background="new 0 0 20 20" xml:space="preserve">
<path  fill="#e233a6" d="M15.823,13.137c-0.973-0.826-1.959-1.327-2.919-0.502l-0.573,0.5
	c-0.419,0.361-1.199,2.054-4.215-1.396C5.101,8.293,6.895,7.756,7.314,7.397l0.577-0.5C8.847,6.07,8.486,5.028,7.797,3.956
	l-0.416-0.65C6.689,2.236,5.936,1.534,4.979,2.36L4.461,2.81C4.037,3.116,2.854,4.113,2.567,6.007
	c-0.346,2.272,0.744,4.875,3.24,7.729c2.493,2.856,4.935,4.291,7.246,4.266c1.923-0.02,3.083-1.046,3.445-1.418l0.52-0.451
	c0.955-0.825,0.362-1.666-0.611-2.494L15.823,13.137z"/>
</svg>
