<?xml version="1.0" encoding="utf-8"?>
<!-- Generator: Adobe Illustrator 16.0.0, SVG Export Plug-In . SVG Version: 6.00 Build 0)  -->
<!DOCTYPE svg PUBLIC "-//W3C//DTD SVG 1.1//EN" "http://www.w3.org/Graphics/SVG/1.1/DTD/svg11.dtd">
<svg version="1.1" xmlns="http://www.w3.org/2000/svg" xmlns:xlink="http://www.w3.org/1999/xlink" x="0px" y="0px"
	 width="20px" height="20px" viewBox="0 0 20 20" enable-background="new 0 0 20 20" xml:space="preserve">
<path fill="#e233a6" d="M18.765,11.716c0.105-0.551,0.16-1.117,0.16-1.696
	c0-4.945-4.009-8.954-8.953-8.954c-0.581,0-1.146,0.056-1.695,0.162C6.3-0.496,3.298-0.418,1.416,1.464
	c-1.881,1.882-1.96,4.884-0.237,6.861C1.074,8.874,1.019,9.439,1.019,10.02c0,4.944,4.008,8.953,8.953,8.953
	c0.581,0,1.146-0.055,1.696-0.16c1.976,1.723,4.977,1.646,6.858-0.238C20.409,16.692,20.487,13.69,18.765,11.716z M10.142,15.533
	c-2.652,0-4.862-1.185-4.862-2.632c0-0.641,0.362-1.225,1.185-1.225c1.266,0,1.387,1.808,3.557,1.808
	c1.044,0,1.708-0.462,1.708-1.064c0-0.743-0.642-0.864-1.686-1.125l-1.729-0.422C6.606,10.452,5.28,9.748,5.28,7.779
	c0-2.391,2.371-3.274,4.4-3.274c2.23,0,4.479,0.884,4.479,2.23c0,0.683-0.462,1.285-1.226,1.285c-1.146,0-1.186-1.345-3.034-1.345
	c-1.023,0-1.687,0.281-1.687,0.904c0,0.682,0.664,0.843,1.568,1.044l1.226,0.281c1.667,0.382,3.656,1.084,3.656,3.135
	C14.663,14.43,12.353,15.533,10.142,15.533z"/>
</svg>
