<?xml version="1.0" encoding="utf-8"?>
<!-- Generator: Adobe Illustrator 16.0.0, SVG Export Plug-In . SVG Version: 6.00 Build 0)  -->
<!DOCTYPE svg PUBLIC "-//W3C//DTD SVG 1.1//EN" "http://www.w3.org/Graphics/SVG/1.1/DTD/svg11.dtd">
<svg version="1.1" id="аЁаЛаОаЙ_1" xmlns="http://www.w3.org/2000/svg" xmlns:xlink="http://www.w3.org/1999/xlink" x="0px" y="0px"
	 width="100px" height="100px" viewBox="0 0 100 100" enable-background="new 0 0 100 100" xml:space="preserve">
<path fill="#7f817e" d="M49.987,1.234c-26.883,0-48.756,21.873-48.756,48.756
	s21.873,48.756,48.756,48.756c26.884,0,48.757-21.873,48.757-48.756S76.871,1.234,49.987,1.234z M75.633,55.056H49.987
	c-2.792,0-5.059-2.268-5.059-5.065V18.786c0-2.798,2.267-5.059,5.059-5.059c2.797,0,5.065,2.268,5.065,5.059v26.146h20.58
	c2.798,0,5.06,2.268,5.06,5.059C80.692,52.788,78.431,55.056,75.633,55.056z"/>
</svg>