<?xml version="1.0" encoding="iso-8859-1"?>
<!-- Generator: Adobe Illustrator 16.2.0, SVG Export Plug-In . SVG Version: 6.00 Build 0)  -->
<!DOCTYPE svg PUBLIC "-//W3C//DTD SVG 1.1//EN" "http://www.w3.org/Graphics/SVG/1.1/DTD/svg11.dtd">
<svg version="1.1" id="&#x421;&#x43B;&#x43E;&#x439;_1"
	 xmlns="http://www.w3.org/2000/svg" xmlns:xlink="http://www.w3.org/1999/xlink" x="0px" y="0px" width="349.917px"
	 height="224.383px" viewBox="0 0 349.917 224.383" style="enable-background:new 0 0 349.917 224.383;" xml:space="preserve">
<g>
	<path d="M334.864,193.686c0.54-0.639,0.969-1.006,1.288-1.104c0.319-0.098,0.65-0.146,0.994-0.146s0.515,0.245,0.515,0.735
		c0,0.294-0.074,0.688-0.221,1.178c-1.668,5.495-2.503,9.423-2.503,11.777c0,2.649,0.908,3.976,2.724,3.976
		c1.767,0,3.754-0.885,5.962-2.65c0.394-0.344,0.994-0.908,1.805-1.693c0.81-0.785,1.803-1.792,2.98-3.018
		c0.343-0.343,0.638-0.516,0.883-0.516c0.196,0,0.344,0.147,0.442,0.441c0.098,0.295,0.023,0.564-0.221,0.811
		c-5.007,5.495-9.423,8.243-13.249,8.243c-3.436,0-5.153-2.675-5.153-8.023c0-0.294,0.074-0.933,0.221-1.913
		c0.049-0.148,0.073-0.295,0.073-0.442c0-0.146,0.025-0.295,0.074-0.441c-0.099,0.05-0.196,0.073-0.294,0.073
		c-0.1,0-0.196,0.025-0.294,0.073c-0.591,0.1-1.19,0.209-1.805,0.332c-0.612,0.123-1.238,0.233-1.877,0.331l-3.828,0.736
		c-0.098,0.049-0.244,0.074-0.44,0.074c-0.394,0.834-0.786,1.68-1.178,2.54c-0.394,0.857-0.811,1.754-1.251,2.686
		c-0.394,0.491-0.725,1.141-0.994,1.951c-0.271,0.809-0.602,1.46-0.993,1.95c-0.197,0.49-0.541,0.735-1.031,0.735
		s-0.945-0.232-1.362-0.699c-0.417-0.466-0.575-0.87-0.479-1.215c0.344-0.735,0.81-1.778,1.398-3.128l0.72-1.658
		c-5.261,4.908-10.409,7.363-15.44,7.363c-4.317,0-6.477-2.331-6.477-6.993v-0.92c0-0.318,0.049-0.649,0.146-0.994
		c-4.515,5.153-7.654,7.729-9.422,7.729c-0.834,0-0.81-1.791,0.074-5.373c0.392-1.276,0.772-2.589,1.14-3.938
		c0.369-1.35,0.749-2.735,1.143-4.158c0.489-2.11,0.417-3.165-0.222-3.165c-0.147,0-0.331,0.072-0.552,0.221
		c-0.221,0.146-0.602,0.491-1.141,1.03c-0.54,0.54-1.276,1.361-2.208,2.466c-0.933,1.104-2.185,2.613-3.754,4.527
		c-0.394,0.589-0.811,1.188-1.252,1.803s-0.933,1.264-1.473,1.95c-0.834,0.981-1.778,1.841-2.834,2.576
		c-1.055,0.736-2.134,1.351-3.238,1.841s-2.184,0.87-3.238,1.141c-1.055,0.27-1.976,0.405-2.76,0.405
		c-2.553,0-3.828-1.104-3.828-3.313c0-0.786,0.318-1.791,0.957-3.018c0.246-0.491,0.49-0.92,0.735-1.288s0.467-0.675,0.662-0.92
		c0.394-0.246,0.614-0.369,0.663-0.369c0.394,0,0.442,0.369,0.147,1.104c-0.245,0.491-0.454,0.922-0.626,1.288
		c-0.171,0.369-0.258,0.749-0.258,1.142c0,0.442,0.136,0.909,0.404,1.398c0.271,0.491,0.676,0.785,1.215,0.885
		c0.982,0.194,2.233-0.087,3.754-0.848c1.521-0.76,3.007-1.803,4.454-3.128s2.687-2.859,3.718-4.601
		c1.029-1.742,1.545-3.472,1.545-5.189c0-2.797-1.496-4.196-4.49-4.196c-1.227,0-2.441,0.394-3.644,1.179
		c-1.201,0.785-2.38,1.742-3.532,2.871c-1.154,1.128-2.282,2.343-3.387,3.644c-4.002,4.712-12.16,13.007-18.364,12.402
		c-1.031-0.049-1.988-0.613-2.871-1.693c-1.03-1.178-1.546-2.674-1.546-4.49c0-0.785,0.123-1.718,0.368-2.797
		c-3.583,4.27-6.354,6.87-8.317,7.802c-1.178,0.54-2.208,0.811-3.091,0.811c-2.259,0-3.387-1.276-3.387-3.828
		c0-2.747,2.92-9.691,5.668-14.648c0.49-0.883,1.521-1.324,3.092-1.324c0.933,0,1.275,0.344,1.029,1.03
		c-0.392,0.785-0.798,1.547-1.214,2.281c-0.417,0.736-2.368,4.589-2.76,5.374c-1.424,2.847-2.135,5.006-2.135,6.478
		c0,1.815,0.441,2.724,1.325,2.724c2.061,0,4.514-1.938,7.36-5.815c2.551-3.435,4.515-6.968,5.888-10.599
		c0.54-0.687,1.497-1.03,2.871-1.03c0.736,0,1.104,0.196,1.104,0.588c0,0.099-0.049,0.245-0.147,0.442
		c-2.846,5.643-4.27,10.035-4.27,13.176c0,2.453,0.981,3.681,2.945,3.681c5.492,0,12.265-8.095,15.935-12.183
		c1.301-1.447,2.614-2.748,3.938-3.9c1.326-1.153,2.676-2.086,4.05-2.798s2.797-1.067,4.269-1.067c4.367,0,6.551,2.282,6.551,6.846
		c0,0.638-0.073,1.325-0.221,2.062c1.079-1.179,2.331-2.576,3.754-4.196c3.631-4.22,6.109-6.33,7.435-6.33
		c0.735,0,0.589,1.57-0.441,4.711c-0.54,1.521-1.055,3.018-1.546,4.49c-0.491,1.472-1.006,2.993-1.546,4.563
		c-1.079,3.142-1.202,4.712-0.368,4.712c0.736,0,2.257-1.153,4.563-3.46c0.394-0.392,0.773-0.786,1.142-1.178
		s0.723-0.785,1.066-1.178c0.393-0.933,0.896-1.853,1.51-2.76s1.313-1.828,2.098-2.761c3.337-3.926,6.526-5.889,9.569-5.889
		c2.502,0,3.753,1.129,3.753,3.386c0,0.785-0.294,1.792-0.883,3.019c-0.245,0.54-0.491,0.994-0.736,1.361
		c-0.245,0.368-0.466,0.676-0.662,0.92c-0.245,0.246-0.442,0.368-0.589,0.368c-0.491,0-0.54-0.368-0.147-1.104
		c0.539-0.982,0.811-1.791,0.811-2.43c0-0.932-0.565-1.397-1.694-1.397c-1.472,0-2.968,0.588-4.489,1.766
		c-0.981,0.736-1.864,1.57-2.649,2.502c-0.786,0.934-1.46,1.891-2.024,2.871c-0.564,0.982-0.995,1.963-1.289,2.944
		s-0.441,1.914-0.441,2.797c0,2.847,1.473,4.271,4.417,4.271c1.569,0,3.459-0.442,5.668-1.325c2.993-1.228,6.183-3.607,9.568-7.141
		c0.17-0.17,0.328-0.311,0.476-0.422l0.04-0.093c2.061-4.76,3.091-7.656,3.091-8.686c0.146-0.295,0.932-0.785,2.355-1.473
		c1.57-0.735,2.355-0.54,2.355,0.589c-0.688,2.013-1.791,4.735-3.313,8.17c0.59-0.146,1.179-0.294,1.767-0.44
		c0.589-0.147,1.203-0.295,1.841-0.442c0.785-0.195,1.557-0.368,2.318-0.515c0.761-0.147,1.558-0.319,2.392-0.516
		c0.049-0.099,0.074-0.185,0.074-0.259c0-0.072,0.024-0.159,0.073-0.256c0.344-1.129,0.736-2.172,1.179-3.129
		C333.761,194.458,334.276,193.882,334.864,193.686"/>
	<path d="M243.57,81.998c-9.371-8.832-24.634,0.305-31.796,7.903c-6.459,6.854-11.661,15.337-14.728,24.437
		c-2.338-5.299-4.221-22.013-5.003-28.591c7.951-8.163,15.97-19.148,20.346-29.66c17.438,0.702,25.895-21.24,25.723-38.296
		c-0.233-23.093-22.619-20.4-33.442-9.621c-18.086,18.014-18.492,53.613-16.279,77.443c-1.105,0.935-2.258,1.862-3.45,2.761
		c-2.638-4.281-5.638-8.308-8.95-11.997c-1.2-1.337-2.587-2.714-4.115-4.07c1.432-1.412,2.653-3.018,3.533-4.63
		c6.603-12.092-1.921-21.257-12.943-18.98c-6.958,1.439-12.494,6.128-16.103,12.102c-4.001,0.105-7.834,1.402-11.157,4.386
		c-16.621,14.923,7.364,48.482,23.889,57.668c4.462,2.481,9.449,4.239,14.454,4.054l0.009-0.425
		C149,124.229,122.542,83.26,138.464,68.964c1.679-1.507,3.505-2.517,5.418-3.112c-3.683,9.474-3.015,20.548,3.551,27.205
		c10.346,10.49,24.298,6.619,35.32-0.5c12.741,23.049,12.403,42.061,5.818,65.921c-2.316,0.407-4.638,0.801-6.957,1.201
		c-1.619-4.711-4.857-7.066-9.716-7.066c-2.208,0-4.208,0.553-5.999,1.656c-1.791,1.104-2.981,2.54-3.57,4.306
		c-0.196,0.442-0.294,0.934-0.294,1.474c0,1.374,0.638,2.478,1.914,3.312c1.423,0.933,3.508,1.35,6.256,1.251
		c2.405-0.049,5.864-0.638,10.378-1.767c0.688,6.331-2.43,16.832-9.348,31.504c-8.048,3.779-12.072,7.876-12.072,12.292
		c0,2.16,0.957,4.146,2.871,5.962c-0.835,1.571-1.755,3.263-2.761,5.08c-1.005,1.815-2.073,3.778-3.201,5.888
		c-0.148,0.294-0.074,0.49,0.22,0.589c0.246,0.147,0.442,0.099,0.589-0.146l5.962-10.747c4.073,3.435,9.618,5.152,16.635,5.152
		c8.293,0,15.973-1.373,23.039-4.122c6.625-2.552,11.63-5.889,15.016-10.011c2.847-3.435,4.27-6.771,4.27-10.011
		c0-3.876-1.938-7.017-5.815-9.421c-3.778-2.307-8.342-3.46-13.689-3.46c-0.857,0-2.163-0.033-4.344,0.074
		c6.821-2.307,12.439-5.373,16.855-9.201c3.877-3.288,5.815-6.428,5.815-9.422c0-2.257-1.152-3.975-3.46-5.152
		c-2.403-1.325-5.791-1.865-10.157-1.619c-4.521,0.322-8.908,0.82-13.381,1.546c2.624-8.819,4.214-18.889,4.023-27.295
		c0.648-14.07,6.651-27.079,15.052-37.288c5.83-7.084,19.771-16.184,28.271-8.171c12.063,11.37-9.195,42.603-28.256,43.886v0.33
		c3.872,0.236,7.767-1.031,11.27-2.869C236.958,119.407,256.163,93.867,243.57,81.998 M162.141,50.221
		c5.522-1.576,11.124,0.074,13.116,5.268c2.197,5.728-0.319,11.955-4.228,16.202c-6.321-5.422-14.864-10.358-22.938-10.859
		C151.323,55.874,156.153,51.929,162.141,50.221 M149.917,91.645c-7.057-7.086-7.864-17.518-4.231-26.254
		c7.623-1.269,16.295,3.266,22.715,8.7c-2.765,2.101-5.809,3.191-8.277,2.635c2.909,0.773,6.073-0.245,8.853-2.14
		c2.191,1.913,4.096,3.919,5.574,5.806c2.533,3.236,4.884,6.677,6.997,10.29C171.468,97.383,159.375,101.141,149.917,91.645
		 M211.649,52.417c-12.865-3.763-3.324-32.898,3.78-26.2C220.066,30.59,213.739,46.918,211.649,52.417 M185.93,90.259
		c0.938-0.695,1.846-1.408,2.72-2.129c0.59,3.947,1.203,7.598,1.9,11.26C189.188,96.256,187.643,93.202,185.93,90.259
		 M190.227,58.313c0.475-42.279,20.691-56.521,33.686-54.243c4.678,0.82,8.411,3.752,9.789,8.084
		c6.57,20.652-9.832,43.696-20.473,40.85c2.449-6.476,7.412-20.33,4.009-26.932c-6.392-12.399-23.96,21.787-6.797,29.412
		c-4.976,10.87-10.934,18.766-19.094,26.894C190.672,73.933,190.126,67.299,190.227,58.313 M174.15,160.782
		c-1.594,0.197-2.956,0.319-4.084,0.368c-3.779,0.246-5.668-0.515-5.668-2.281c0-0.343,0.098-0.687,0.294-1.03
		c1.325-2.944,3.656-4.416,6.992-4.416c4.024,0,6.748,2.183,8.171,6.551C177.647,160.316,175.745,160.587,174.15,160.782
		 M181.91,170.5c0.539-3.093,0.662-5.767,0.368-8.024c1.916-0.473,3.61-0.886,5.081-1.239c-3.324,8.628-7.593,22.104-10.528,31.345
		c-1.324,0.245-2.502,0.54-3.534,0.884C177.91,184.141,180.781,176.485,181.91,170.5 M162.853,207.082
		c0-3.338,2.208-6.453,6.625-9.349c-0.835,1.815-1.767,3.73-2.797,5.741c-1.031,2.012-2.11,4.122-3.239,6.331
		C163.048,208.873,162.853,207.965,162.853,207.082 M194.57,159.531c2.404-0.54,4.649-0.932,6.735-1.177
		c2.085-0.246,3.986-0.393,5.704-0.441c6.183,0,9.274,1.521,9.274,4.563c0,2.307-1.742,5.202-5.226,8.686
		c-4.368,4.416-9.25,7.483-14.648,9.201c-0.54-0.245-1.423-0.295-2.649-0.146c-0.491,0.049-0.957,0.208-1.398,0.478
		c-0.442,0.271-0.823,0.577-1.141,0.92c-0.319,0.345-0.577,0.712-0.773,1.104c-0.197,0.393-0.295,0.736-0.295,1.031
		c0,0.54,0.295,0.735,0.884,0.588c2.649-0.736,5.472-1.104,8.465-1.104c4.956,0,9.177,0.934,12.659,2.798
		c3.779,2.013,5.669,4.661,5.669,7.949c0,2.748-1.324,5.692-3.975,8.833c-3.288,3.976-7.901,7.238-13.838,9.789
		c-6.625,2.847-13.912,4.271-21.862,4.271c-6.967,0-11.654-1.988-14.059-5.964c1.62-2.943,3.068-5.617,4.343-8.022
		c1.277-2.404,2.405-4.539,3.386-6.403c0.737-0.393,1.472-0.724,2.209-0.994c0.735-0.27,1.473-0.503,2.208-0.698
		c-0.589,2.354-0.858,4.366-0.81,6.034c0.098,2.356,0.834,4.196,2.208,5.521s3.264,1.914,5.668,1.767
		c0.393-0.099,0.589-0.246,0.589-0.441c0-0.54-0.319-0.736-0.957-0.589c-0.196,0.049-0.466,0.073-0.81,0.073
		c-1.424,0-2.527-0.688-3.313-2.061c-0.736-1.276-1.079-2.822-1.031-4.638c0-1.57,0.491-3.681,1.474-6.33
		c1.177-0.196,2.392-0.331,3.643-0.405c1.251-0.073,2.539-0.11,3.864-0.11c6.969,0,11.949,0.982,14.942,2.944
		c0.344,0.196,0.735,0.295,1.178,0.295c0.441-0.049,0.564-0.295,0.369-0.736c-1.865-3.043-7.116-4.563-15.753-4.563
		c-1.275,0-2.526,0.037-3.754,0.11c-1.227,0.073-2.453,0.208-3.681,0.404c5.167-12.348,8.431-18.652,12.833-32.12
		C193.944,159.705,194.501,159.566,194.57,159.531"/>
	<path d="M177.492,140.039c-0.107-0.32-0.268-0.479-0.48-0.479c-0.267,0-0.586,0.187-0.96,0.56
		c-1.279,1.332-2.358,2.425-3.237,3.278c-0.88,0.852-1.533,1.465-1.959,1.838c-2.399,1.92-4.558,2.878-6.477,2.878
		c-2.344,0-3.517-1.705-3.517-5.116c0-2.612,0.666-6.156,1.998-10.633c0.054-0.214,0.094-0.4,0.12-0.561
		c0.027-0.159,0.04-0.319,0.04-0.479c0-0.639-0.292-0.959-0.879-0.959c-1.172,0-2.238,0.639-3.198,1.918
		c-4.904,6.557-8.182,11.114-9.834,13.672c0.107-2.718,0.187-4.757,0.24-6.116c0.053-1.359,0.08-2.065,0.08-2.119
		c-0.32-3.091-1.732-4.637-4.238-4.637c-0.959,0-1.865,0.266-2.718,0.799c-0.746,0.641-1.426,1.239-2.039,1.8
		c-0.612,0.56-1.132,1.053-1.559,1.479l2.558-7.835c0-1.227-0.852-1.439-2.558-0.639c-1.545,0.745-2.398,1.278-2.558,1.598
		c0,1.114-1.106,4.229-3.319,9.345c-0.137,0.064-0.284,0.174-0.439,0.329c-1.759,1.813-4.024,3.519-6.795,5.117
		c-3.039,1.813-6.05,3.038-9.035,3.679c2.878-2.133,4.317-5.171,4.317-9.115c0-2.611-0.773-5.17-2.319-7.675
		c-1.438-2.345-3.464-4.184-6.076-5.517c3.891-6.876,7.196-10.313,9.914-10.313c1.439,0,2.052,0.906,1.839,2.718
		c-0.107,0.427,0,0.64,0.32,0.64c0.48,0,0.72-0.586,0.72-1.759c0-1.705-0.987-2.559-2.959-2.559c-4.53,0-8.874,3.331-13.031,9.994
		c-0.534-0.106-1.04-0.213-1.52-0.32c-0.479-0.105-0.986-0.186-1.519-0.239c-2.771-0.213-5.037,0.213-6.796,1.278
		c-1.759,1.066-2.638,2.612-2.638,4.638c0,1.066,0.186,1.599,0.56,1.599c0.586,0,0.853-0.319,0.799-0.959
		c-0.32-1.919,0.4-3.278,2.159-4.077c1.386-0.64,3.198-0.853,5.436-0.64c0.853,0.105,1.68,0.293,2.479,0.559
		c-2.696,5.192-4.69,9.099-5.983,11.717c-0.319,0-1.533,1.076-2.172,1.716c-1.599,1.759-2.932,3.198-3.998,4.317
		c-1.066,1.12-1.892,1.945-2.478,2.479c-3.198,2.878-5.836,4.317-7.915,4.317c-2.505,0-4.184-1.919-5.038-5.757
		c-0.479-1.812-0.718-4.051-0.718-6.716c0-1.598,0.079-3.331,0.239-5.197c0.16-1.864,0.427-3.917,0.8-6.155
		c8.048-1.279,11.939-4.797,11.673-10.554c-0.107-0.426-0.321-0.64-0.64-0.64c-0.48,0-0.72,0.293-0.72,0.88
		c0,4.424-3.331,7.168-9.994,8.235c1.493-7.196,2.799-13.353,3.918-18.469c1.12-5.117,2.079-9.275,2.879-12.472
		c0.159-0.747,0.106-1.306-0.161-1.679c1.759-3.412,2.639-6.183,2.639-8.316c0-3.197-1.999-4.877-5.997-5.036
		c-0.852,0-1.279,0.24-1.279,0.719c0,0.267,0.24,0.4,0.72,0.4c2.079,0.106,3.118,1.119,3.118,3.038
		c0,3.998-4.478,11.593-13.432,22.786c-3.251,4.051-6.396,7.769-9.434,11.153s-5.996,6.517-8.875,9.395
		c-1.065,0.106-2.012,0.2-2.838,0.279c-0.826,0.081-1.532,0.174-2.119,0.28c9.008-9.008,15.404-17.537,19.188-25.584
		c1.707-3.731,2.559-7.089,2.559-10.074c0-3.358-0.933-6.01-2.798-7.955c-1.866-1.945-4.264-2.918-7.196-2.918
		c-4.051,0-8.022,1.759-11.913,5.276c-4.477,4.052-8.101,9.834-10.873,17.35c-1.652,4.477-2.478,9.381-2.478,14.711
		c0,3.998,0.532,7.675,1.599,11.033c-8.635,1.973-15.138,5.623-19.508,10.954c-2.079,2.558-3.119,5.063-3.119,7.515
		c0,3.571,2.106,6.343,6.317,8.314c-7.409,4.531-13.539,6.716-18.389,6.556c-1.813-0.052-2.719-0.665-2.719-1.838
		c0-0.693,0.24-1.6,0.72-2.719c-0.586,0.267-1.012,0.772-1.279,1.519C0.24,160.773,0,161.52,0,162.105
		c0,1.386,1.12,2.105,3.358,2.158c5.171,0.214,12.019-2.185,20.548-7.194c2.718,1.225,5.969,2.051,9.754,2.478
		c0.959,0.106,1.439-0.053,1.439-0.479c0-0.159-0.293-0.293-0.879-0.4c-1.866-0.213-3.545-0.506-5.037-0.879
		c-1.493-0.374-2.825-0.853-3.998-1.439c2.398-1.386,5.277-3.45,8.635-6.196c3.357-2.744,7.222-6.196,11.592-10.354
		c3.412,2.772,7.756,4.157,13.033,4.157c3.624,0,6.369-0.933,8.235-2.798c0.213-0.213,0.213-0.426,0-0.639
		c-0.214-0.215-0.427-0.215-0.64,0c-1.652,1.651-4.184,2.478-7.595,2.478c-4.904,0-8.981-1.332-12.233-3.998
		c3.411-3.198,5.996-5.623,7.755-7.275s2.745-2.559,2.959-2.719c4.424-0.266,8.288-0.466,11.592-0.599
		c3.305-0.133,6.103-0.228,8.395-0.28c-1.012,4.744-1.519,8.794-1.519,12.153c0,1.545,0.133,2.983,0.4,4.316
		c1.226,5.863,3.865,8.794,7.915,8.794c2.825,0,6.13-1.438,9.914-4.316c1.545-1.172,3.012-2.425,4.397-3.758
		c0.721-0.693,1.415-1.416,2.077-2.167c-1.037,1.922-2.09,3.831-3.156,5.725c-1.786,3.172-3.611,6.33-5.477,9.475
		c-1.599,2.665-3.291,5.051-5.077,7.155c-1.785,2.105-3.637,3.918-5.557,5.438c-1.918,1.519-3.85,2.678-5.795,3.477
		c-1.946,0.801-3.879,1.2-5.797,1.2c-2.558,0-4.584-0.8-6.076-2.399c-1.226-1.385-1.839-3.091-1.839-5.115
		c0-2.079,0.586-3.705,1.759-4.877c0.32-0.321,0.48-0.613,0.48-0.881c0-0.373-0.187-0.56-0.561-0.56
		c-0.319,0-0.586,0.161-0.799,0.479c-1.705,1.813-2.558,3.892-2.558,6.236c0,2.399,0.853,4.398,2.558,5.997
		c1.813,1.813,4.344,2.718,7.595,2.718c5.651,0,10.607-1.599,14.871-4.797c3.625-2.665,7.036-6.742,10.234-12.231
		c1.599-2.773,3.105-5.411,4.517-7.915c1.413-2.507,2.732-4.932,3.958-7.276c1.866,3.784,4.983,5.676,9.355,5.676
		c3.038,0,6.555-0.933,10.553-2.798c3.089-1.476,5.92-3.271,8.491-5.385c-0.417,0.97-0.795,1.847-1.136,2.627
		c-0.639,1.465-1.146,2.598-1.519,3.397c-0.053,0.16-0.079,0.399-0.079,0.72c0,1.013,0.372,1.519,1.119,1.519
		c0.319,0,0.639-0.08,0.959-0.24c0.32-0.159,1.279-1.651,2.878-4.477c1.813-3.198,3.438-5.516,4.877-6.956
		c2.132-2.238,3.704-3.358,4.718-3.358c1.225,0,1.732,2.187,1.519,6.557c-0.054,0.64-0.107,1.333-0.161,2.079
		c-0.052,0.746-0.133,1.546-0.24,2.398c-0.159,1.705-0.239,2.559-0.239,2.559c-0.214,0.853,0.106,1.386,0.959,1.599
		c0.8,0.32,1.705-0.107,2.719-1.279l4.797-7.195c0.852-1.066,1.559-1.933,2.119-2.599c0.559-0.666,1.026-1.186,1.398-1.559
		c-0.426,8.155,1.546,12.231,5.917,12.231c4.051,0,9.008-3.197,14.871-9.594C177.519,140.652,177.598,140.359,177.492,140.039
		 M42.17,104.131c2.612-7.196,5.997-12.792,10.154-16.79c3.571-3.411,6.343-4.892,9.968-4.892c2.452,0,4.451,0.853,5.996,2.559
		c1.546,1.705,2.169,3.649,2.169,6.58c0,3.039-0.879,6.423-2.638,10.154c-4.104,8.582-10.201,17.296-18.889,26.144
		c-1.705,0.213-3.278,0.428-4.717,0.641s-2.771,0.453-3.997,0.719c-0.906-3.038-1.359-6.316-1.359-9.834
		C38.857,114.028,40.411,109.035,42.17,104.131 M45.732,131.004c-1.119,1.119-2.265,2.187-3.437,3.198
		c-0.214-0.32-0.4-0.639-0.56-0.959s-0.32-0.64-0.48-0.96c0.746-0.266,1.493-0.493,2.239-0.679
		C44.24,131.417,44.986,131.217,45.732,131.004 M32.22,149.073c-3.357,2.825-6.182,4.983-8.474,6.476
		c-2.558-1.918-3.838-4.023-3.838-6.315c0-3.411,2.479-6.85,7.436-10.314c3.731-2.61,7.941-4.689,12.632-6.235
		c0.213,0.427,0.413,0.84,0.6,1.238c0.186,0.4,0.413,0.787,0.679,1.16c-2.238,1.919-4.331,3.624-6.276,5.117
		c-1.946,1.492-3.771,2.771-5.477,3.837c-0.213,0.053-0.266,0.24-0.16,0.56c0.054,0.214,0.187,0.32,0.4,0.32
		c0.96,0,4.691-2.771,11.193-8.314l0.88-0.721c0.693,1.014,1.412,1.866,2.159,2.56C39.496,142.704,35.579,146.248,32.22,149.073
		 M48.371,134.242c-1.386,1.359-2.585,2.492-3.598,3.397c-0.373-0.426-0.733-0.853-1.08-1.278c-0.346-0.427-0.652-0.854-0.919-1.279
		c0.853-0.746,1.679-1.506,2.479-2.279c0.799-0.772,1.599-1.531,2.398-2.278c0.746-0.159,1.599-0.319,2.558-0.479
		c0.96-0.16,1.973-0.347,3.039-0.56C51.382,131.297,49.756,132.883,48.371,134.242 M79.192,119.291
		c-0.72,2.532-1.319,4.812-1.799,6.836c-1.546,0.107-4.557,0.188-9.034,0.24c-3.892,0.106-6.903,0.267-9.035,0.479
		c3.571-3.357,6.543-6.195,8.915-8.515c2.371-2.319,4.17-4.144,5.396-5.477c4.531-4.85,8.608-10.127,12.233-15.83
		c-0.746,2.345-1.466,4.664-2.159,6.956c-0.693,2.292-1.386,4.61-2.079,6.955C80.724,113.976,79.911,116.76,79.192,119.291
		 M113.011,147.794c-0.879,0.426-1.799,0.64-2.758,0.64c-2.719,0-4.824-1.52-6.316-4.558c0.266-0.533,0.533-1.052,0.799-1.559
		c0.267-0.506,0.533-1.053,0.8-1.64c2.451-5.01,4.423-9.033,5.916-12.071c2.026,1.545,3.651,3.597,4.877,6.155
		c0.853,1.706,1.279,3.438,1.279,5.197c0,1.227-0.2,2.345-0.599,3.358c-0.4,1.013-0.946,1.904-1.639,2.678
		C114.677,146.769,113.891,147.368,113.011,147.794"/>
</g>
</svg>
