<?xml version="1.0" encoding="utf-8"?>
<!-- Generator: Adobe Illustrator 17.0.0, SVG Export Plug-In . SVG Version: 6.00 Build 0)  -->
<!DOCTYPE svg PUBLIC "-//W3C//DTD SVG 1.1//EN" "http://www.w3.org/Graphics/SVG/1.1/DTD/svg11.dtd">
<svg version="1.1" id="Layer_1" xmlns="http://www.w3.org/2000/svg" xmlns:xlink="http://www.w3.org/1999/xlink" x="0px" y="0px"
	 width="80px" height="80px" viewBox="0 0 80 80" enable-background="new 0 0 80 80" xml:space="preserve">
<polygon fill="#D54298" points="22.89,34.367 28.108,28.916 26.664,27.533 21.446,32.984 14.641,26.471 19.859,21.02 18.415,19.637 
	13.197,25.088 6.805,18.969 17.241,8.066 38.838,28.74 40.323,27.393 17.179,5.238 3.976,19.031 26.148,40.254 27.633,38.906 "/>
<polygon fill="#D54298" points="72.572,61.031 62.136,71.934 55.715,65.787 60.933,60.336 59.489,58.954 54.27,64.405 
	47.466,57.892 52.684,52.44 51.239,51.057 46.021,56.508 41.922,52.585 40.458,53.952 62.197,74.762 75.4,60.97 54.433,40.899 
	52.969,42.267 "/>
<path fill="#231F20" d="M74.279,10.683c-2.398-3.317-5.672-4.013-7.997-4.013c-2.034,0-3.549,0.53-3.612,0.553l-0.189,0.067
	l-48.047,43.59L3.572,74.197l25.194-9.325l46.821-43.731l0.082-0.173C75.767,20.761,78.014,15.85,74.279,10.683z M23.18,57.782
	l36.536-33.63l4.546,4.83l-36.18,33.792L23.18,57.782z M16.878,51.364l36.923-33.497l4.545,4.829L21.778,56.354L16.878,51.364z
	 M55.282,16.522l5.425-4.922l10.369,11.017l-5.352,4.999L55.282,16.522z M15.662,52.98l10.522,10.715l-13.88,5.138l-2.715-2.816
	L15.662,52.98z M8.684,67.959l1.573,1.631l-2.819,1.043L8.684,67.959z M73.927,19.955l-1.389,1.297L62.189,10.257l1.326-1.203
	c0.404-0.118,1.46-0.383,2.768-0.383c2.703,0,4.848,1.071,6.375,3.185C75.377,15.617,74.238,19.163,73.927,19.955z"/>
</svg>
