<?xml version="1.0" encoding="utf-8"?>
<!-- Generator: Adobe Illustrator 17.0.0, SVG Export Plug-In . SVG Version: 6.00 Build 0)  -->
<!DOCTYPE svg PUBLIC "-//W3C//DTD SVG 1.1//EN" "http://www.w3.org/Graphics/SVG/1.1/DTD/svg11.dtd">
<svg version="1.1" id="Layer_1" xmlns="http://www.w3.org/2000/svg" xmlns:xlink="http://www.w3.org/1999/xlink" x="0px" y="0px"
	 width="80px" height="80px" viewBox="0 0 80 80" enable-background="new 0 0 80 80" xml:space="preserve">
<polygon fill="#231F20" points="12.5,76.833 12.5,38.583 69,38.583 69,47.333 71,47.333 71,36.583 10.5,36.583 10.5,78.833 
	71,78.833 71,67.833 69,67.833 69,76.833 "/>
<path fill="#D54298" d="M71,67.833H50.789l-0.184-0.077c-0.284-0.117-6.938-2.962-6.938-10.048c0-7.063,6.626-10.157,6.908-10.285
	l0.197-0.09H71V67.833z M51.205,65.833H69v-16.5H51.22c-0.995,0.51-5.553,3.134-5.553,8.375
	C45.667,62.91,50.264,65.382,51.205,65.833z"/>
<path fill="#D54298" d="M54.494,63.146c-2.998,0-5.438-2.439-5.438-5.438s2.439-5.438,5.438-5.438s5.438,2.439,5.438,5.438
	S57.492,63.146,54.494,63.146z M54.494,54.271c-1.896,0-3.438,1.542-3.438,3.438s1.542,3.438,3.438,3.438s3.438-1.542,3.438-3.438
	S56.389,54.271,54.494,54.271z"/>
<path fill="#231F20" d="M41.375,29.25c-8.064,0-14.625-6.561-14.625-14.625S33.311,0,41.375,0S56,6.561,56,14.625
	S49.439,29.25,41.375,29.25z M41.375,2C34.414,2,28.75,7.664,28.75,14.625S34.414,27.25,41.375,27.25S54,21.586,54,14.625
	S48.336,2,41.375,2z"/>
<path fill="#010101" d="M42.491,16.037h0.965c2.317,0,3.727-1.61,3.727-4.175s-1.409-4.195-3.727-4.195h-5.657v6.839h-1.486v1.531
	h1.486v1.469h-1.486v1.531h1.486v2.547h1.681v-2.547h6.083v-1.531h-6.083v-1.469H42.491z M39.479,9.198h3.687
	c1.391,0,2.297,0.974,2.297,2.664c0,1.67-0.907,2.644-2.297,2.644h-0.675h-3.011V9.198z"/>
</svg>
