<?xml version="1.0" encoding="utf-8"?>
<!-- Generator: Adobe Illustrator 17.0.0, SVG Export Plug-In . SVG Version: 6.00 Build 0)  -->
<!DOCTYPE svg PUBLIC "-//W3C//DTD SVG 1.1//EN" "http://www.w3.org/Graphics/SVG/1.1/DTD/svg11.dtd">
<svg version="1.1" id="Layer_1" xmlns="http://www.w3.org/2000/svg" xmlns:xlink="http://www.w3.org/1999/xlink" x="0px" y="0px"
	 width="80px" height="80px" viewBox="0 0 80 80" enable-background="new 0 0 80 80" xml:space="preserve">
<path fill="#D54298" d="M25.053,76.583H7.396c-3.159,0-5.729-2.57-5.729-5.729V43.896c0-3.159,2.57-5.729,5.729-5.729h17.656
	c3.159,0,5.729,2.57,5.729,5.729v26.958C30.782,74.013,28.212,76.583,25.053,76.583z M7.396,40.167
	c-2.057,0-3.729,1.673-3.729,3.729v26.958c0,2.057,1.673,3.729,3.729,3.729h17.656c2.057,0,3.729-1.673,3.729-3.729V43.896
	c0-2.057-1.673-3.729-3.729-3.729H7.396z"/>
<path fill="#231F20" d="M78.308,48.604c0-1.594-0.585-3.134-1.648-4.337l-0.388-0.439l0.495-0.314c1.916-1.213,3.06-3.281,3.06-5.53
	c0-3.608-2.932-6.544-6.536-6.544H58.101l0.18-0.636c0.643-2.275,1.146-5.391,1.496-9.26l0.047-0.18v0
	c-0.01,0,0.556-4.435,0.256-8.442l-0.02-0.121c-0.138-2.113-0.57-5.133-2.716-6.963c-1.376-1.17-3.22-1.64-5.472-1.385
	c-4.015,0.441-4.971,3.834-5.377,7.094l-0.025,0.108c-0.033,0.091-0.054,0.174-0.063,0.252c-0.091,0.77-0.896,7.56-1.464,9.52
	c-0.012,0.041-0.016,0.085-0.021,0.129c-2.198,8.728-11.26,18.749-14.258,21.184c0.077,0.373,0.117,0.76,0.117,1.155v1.398
	c3.57-1.764,14.028-13.839,16.337-23.211l0.011-0.101c0.628-2.333,1.344-8.309,1.48-9.484l0.024-0.104
	c0.027-0.08,0.045-0.159,0.054-0.236c0.476-3.898,1.31-5.225,3.432-5.463c1.647-0.186,2.855,0.098,3.757,0.862
	c1.572,1.341,1.865,3.927,1.949,5.756c0.003,0.043,0.013,0.087,0.021,0.131c0.181,3.066-0.119,6.262-0.255,7.497
	c-0.025,0.121-0.04,0.175-0.045,0.232c-0.658,7.452-1.787,10.175-2.007,10.645l-0.052,0.086c-0.146,0.197-0.223,0.426-0.223,0.663
	c0,0.623,0.507,1.13,1.13,1.13h16.895c2.357,0,4.275,1.922,4.275,4.286c0,2.362-1.918,4.284-4.275,4.284
	c-0.623,0-1.13,0.507-1.13,1.13c0,0.484,0.314,0.913,0.781,1.067l0.095,0.039c1.759,0.521,3.011,2.208,3.011,4.092
	c0,2.363-1.918,4.286-4.275,4.286c-0.085,0-0.178,0.014-0.292,0.044c-0.431,0.095-0.754,0.394-0.864,0.784
	c-0.084,0.292-0.049,0.598,0.098,0.862c0.146,0.261,0.384,0.45,0.671,0.532c1.816,0.534,3.082,2.225,3.082,4.114
	c0,2.363-1.918,4.286-4.275,4.286c-0.623,0-1.13,0.506-1.13,1.128l0.011,0.104c0.008,0.487,0.321,0.908,0.779,1.048
	c1.801,0.557,3.01,2.203,3.01,4.097c0,2.362-1.918,4.283-4.275,4.283c-0.077,0-0.158,0.009-0.242,0.026
	c-5.903,0.091-11.646,0.135-16.268,0.135c-4.526,0-8.054-0.041-10.482-0.123c-3.091-0.109-5.876-2.77-8.113-4.907
	c-0.859-0.823-1.664-1.593-2.398-2.129c-0.092-0.066-0.194-0.116-0.3-0.151v2.84c0.292,0.266,0.596,0.553,0.91,0.851l0.229,0.217
	c2.379,2.278,5.633,5.395,9.596,5.531c2.485,0.085,6.085,0.128,10.699,0.128c4.639,0,10.188-0.043,16.049-0.124l0.344-0.004
	c0.072-0.001,0.158-0.015,0.262-0.042l0.1-0.016c3.445-0.202,6.144-3.064,6.144-6.516c0-1.587-0.584-3.124-1.646-4.327l-0.394-0.446
	l0.507-0.311c1.965-1.206,3.138-3.292,3.138-5.579c0-1.56-0.585-3.087-1.646-4.301l-0.39-0.445l0.504-0.31
	C77.141,52.96,78.308,50.882,78.308,48.604z"/>
<path fill="#D54298" d="M19,70.5c-2.849,0-5.167-2.318-5.167-5.167c0-2.849,2.318-5.167,5.167-5.167s5.167,2.318,5.167,5.167
	C24.167,68.182,21.849,70.5,19,70.5z M19,62.167c-1.746,0-3.167,1.421-3.167,3.167S17.254,68.5,19,68.5s3.167-1.42,3.167-3.167
	S20.746,62.167,19,62.167z"/>
</svg>
