<?xml version="1.0" encoding="utf-8"?>
<!-- Generator: Adobe Illustrator 17.0.0, SVG Export Plug-In . SVG Version: 6.00 Build 0)  -->
<!DOCTYPE svg PUBLIC "-//W3C//DTD SVG 1.1//EN" "http://www.w3.org/Graphics/SVG/1.1/DTD/svg11.dtd">
<svg version="1.1" id="Layer_1" xmlns="http://www.w3.org/2000/svg" xmlns:xlink="http://www.w3.org/1999/xlink" x="0px" y="0px"
	 width="45px" height="45px" viewBox="0 0 45 45" enable-background="new 0 0 45 45" xml:space="preserve">
<path fill="#231F20" d="M43.56,34.458H1.44V17.792h42.12V34.458z M2.44,33.458h40.12V18.792H2.44V33.458z"/>
<rect x="6.213" y="21.708" fill="#231F20" width="11.875" height="1"/>
<rect x="6.213" y="25.708" fill="#231F20" width="11.875" height="1"/>
<rect x="6.213" y="29.708" fill="#231F20" width="11.875" height="1"/>
<polygon fill="#E233A6" points="11.187,12.865 15.213,11.639 15.213,10.615 7.521,12.935 15.213,14.957 15.213,13.923 "/>
<path fill="#231F20" d="M15.457,10.542l-0.244,0.073v1.023v2.285v1.034l0.186,0.049l22.564,0.017v-4.48H15.457z M36.963,14.022
	h-20.75v-2.48h20.75V14.022z"/>
<path fill="#E233A6" d="M33.976,30.908c-0.851,0-1.629-0.264-2.292-0.784c-0.221-0.173-0.423-0.369-0.609-0.584
	c-0.863,0.601-1.727,1.012-2.373,1.133c-1.375,0.254-1.864-0.666-2.191-1.274c-0.239-0.446-0.401-0.722-0.712-0.786
	c-0.767-0.156-0.995,0.77-1.017,0.876l-0.979-0.208c0.148-0.697,0.796-1.936,2.199-1.647c0.784,0.163,1.12,0.79,1.39,1.293
	c0.337,0.63,0.502,0.881,1.126,0.764c0.479-0.089,1.214-0.438,1.978-0.968c-0.75-1.288-1.068-2.92-1.031-4.266
	c0.048-1.737,1.351-2.878,2.582-2.978c0.95-0.082,2.106,0.457,2.438,2.19c0.204,1.068-0.105,2.243-0.894,3.397
	c-0.467,0.684-1.073,1.32-1.72,1.865c0.133,0.149,0.277,0.286,0.431,0.406c0.729,0.571,1.624,0.714,2.664,0.429
	c2.303-0.635,1.753-2.957,1.684-3.219l0.965-0.263c0.333,1.219,0.266,3.716-2.383,4.446C34.798,30.849,34.379,30.908,33.976,30.908z
	 M32.23,22.471c-0.034,0-0.069,0.001-0.104,0.004c-0.792,0.064-1.63,0.833-1.663,2.008c-0.031,1.117,0.228,2.521,0.831,3.623
	c0.545-0.465,1.064-1.01,1.469-1.604c0.645-0.944,0.893-1.834,0.737-2.646C33.332,22.97,32.872,22.471,32.23,22.471z"/>
</svg>
