<?xml version="1.0" encoding="utf-8"?>
<!-- Generator: Adobe Illustrator 17.0.0, SVG Export Plug-In . SVG Version: 6.00 Build 0)  -->
<!DOCTYPE svg PUBLIC "-//W3C//DTD SVG 1.1//EN" "http://www.w3.org/Graphics/SVG/1.1/DTD/svg11.dtd">
<svg version="1.1" id="Layer_1" xmlns="http://www.w3.org/2000/svg" xmlns:xlink="http://www.w3.org/1999/xlink" x="0px" y="0px"
	 width="45px" height="45px" viewBox="0 0 45 45" enable-background="new 0 0 45 45" xml:space="preserve">
<path fill="#231F20" d="M16.208,32.734c-8.316,0-8.316-4.606-8.316-6.338v-1.628c1.289,2.286,4.086,3.449,8.316,3.449
	c1.394,0,2.614-0.138,3.689-0.388v-0.558h0.018c-0.01-0.183-0.014-0.349-0.016-0.508c-0.996,0.242-2.205,0.387-3.691,0.387
	c-8.316,0-8.316-4.455-8.316-6.134v-1.232c1.289,2.289,4.086,3.446,8.316,3.446c1.394,0,2.614-0.137,3.689-0.387v-0.456
	c0-0.208,0.016-0.414,0.046-0.616c-1.003,0.249-2.228,0.396-3.735,0.396c-8.316,0-8.316-4.458-8.316-6.134V14.8
	c1.289,2.286,4.086,3.445,8.316,3.445c4.172,0,6.927-1.129,8.195-3.352v1.139c0,0.334-0.001,0.751-0.051,1.208
	c0.28-0.107,0.569-0.205,0.869-0.292v-0.12h-0.013c0.013-0.309,0.013-0.589,0.013-0.795v-4.189h-0.013
	c0.013-0.314,0.013-0.589,0.013-0.796V6.959C25.22,3.616,21.234,1,16.148,1c-5.09,0-9.076,2.616-9.076,5.959v4.089
	c0,0.241,0.003,0.5,0.018,0.796H7.071v4.189c0,0.241,0.003,0.502,0.018,0.795H7.071v4.189c0,0.303,0,0.713,0.047,1.188H7.071v4.192
	c0,1.829,0,7.401,9.137,7.401c1.461,0,2.663-0.153,3.689-0.398v-1.065C18.901,32.585,17.693,32.734,16.208,32.734z M16.148,2.067
	c4.473,0,8.255,2.237,8.255,4.892c0,2.651-3.782,4.892-8.255,4.892c-4.476,0-8.256-2.241-8.256-4.892
	C7.892,4.305,11.671,2.067,16.148,2.067z M7.892,9.478c1.448,2.096,4.65,3.439,8.256,3.439c3.602,0,6.805-1.343,8.255-3.439v1.569
	c0,1.836,0,6.134-8.195,6.134c-8.316,0-8.316-4.457-8.316-6.134V9.478z"/>
<path fill="#E233A6" d="M19.897,36.748v0.406l0,0c0.078,1.781,0.44,2.358,0.69,2.848l0.13,0.195c0.145,0.258,0.316,0.497,0.5,0.726
	c0.041,0.05,0.081,0.1,0.125,0.149c0.17,0.198,0.355,0.384,0.555,0.559c0.058,0.051,0.122,0.101,0.184,0.151
	c1.531,1.233,3.853,1.864,6.952,1.864c4.098,0,6.86-1.072,8.118-3.242c0.235-0.406,0.745-1.125,0.859-2.838
	c0.029-0.437,0.036-0.827,0.036-1.121v-4.189h-0.013c0.013-0.309,0.013-0.589,0.013-0.795v-4.189h-0.013
	c0.013-0.314,0.013-0.589,0.013-0.796v-4.089c0-3.342-3.986-5.959-9.073-5.959c-5.09,0-9.076,2.616-9.076,5.959v4.089
	c0,0.241,0.003,0.5,0.018,0.796h-0.018v4.189c0,0.241,0.003,0.502,0.018,0.795h-0.018 M28.973,17.496
	c4.473,0,8.255,2.237,8.255,4.892c0,2.651-3.782,4.892-8.255,4.892c-4.476,0-8.256-2.241-8.256-4.892
	C20.717,19.733,24.497,17.496,28.973,17.496z M20.717,24.907c1.448,2.096,4.65,3.439,8.256,3.439c3.602,0,6.805-1.343,8.255-3.439
	v1.569c0,1.836,0,6.134-8.195,6.134c-8.316,0-8.316-4.457-8.316-6.134V24.907z M20.717,30.228c1.289,2.286,4.086,3.446,8.316,3.446
	c4.172,0,6.927-1.129,8.195-3.352v1.139c0,1.835,0,6.134-8.195,6.134c-8.316,0-8.316-4.458-8.316-6.134V30.228z M20.717,35.213
	c1.289,2.289,4.086,3.445,8.316,3.445c4.172,0,6.927-1.126,8.195-3.349v1.136c0,1.835,0,6.134-8.195,6.134
	c-8.316,0-8.316-4.455-8.316-6.134V35.213z"/>
</svg>
