<?xml version="1.0" encoding="utf-8"?>
<!-- Generator: Adobe Illustrator 17.0.0, SVG Export Plug-In . SVG Version: 6.00 Build 0)  -->
<!DOCTYPE svg PUBLIC "-//W3C//DTD SVG 1.1//EN" "http://www.w3.org/Graphics/SVG/1.1/DTD/svg11.dtd">
<svg version="1.1" id="Layer_1" xmlns="http://www.w3.org/2000/svg" xmlns:xlink="http://www.w3.org/1999/xlink" x="0px" y="0px"
	 width="45px" height="45px" viewBox="0 0 45 45" enable-background="new 0 0 45 45" xml:space="preserve">
<path fill="#231F20" d="M39.735,21.675h-9.61v-4.667h7.488L39.735,21.675z M31.125,20.675h7.057l-1.212-2.667h-5.845V20.675z"/>
<path fill="#231F20" d="M3.856,31.382H0.875v1h2.982c-0.013-0.17-0.026-0.339-0.026-0.512C3.831,31.705,3.844,31.543,3.856,31.382z"
	/>
<path fill="#231F20" d="M5.85,27.009H1.877V7.259h24.998v19.75H15.557c0.306,0.306,0.583,0.641,0.828,1h11.49V6.259H0.877v21.75
	h4.145C5.267,27.65,5.544,27.314,5.85,27.009z"/>
<path fill="#EC008C" d="M16.018,36.22c-0.008,0.01-0.016,0.019-0.024,0.029C16.002,36.24,16.01,36.23,16.018,36.22z"/>
<path fill="#EC008C" d="M10.703,38.741c-3.789,0-6.872-3.083-6.872-6.872c0-3.79,3.083-6.873,6.872-6.873
	c3.79,0,6.873,3.083,6.873,6.873C17.576,35.658,14.493,38.741,10.703,38.741z M10.703,25.997c-3.238,0-5.872,2.634-5.872,5.873
	c0,3.238,2.634,5.872,5.872,5.872c3.238,0,5.873-2.634,5.873-5.872C16.576,28.631,13.941,25.997,10.703,25.997z"/>
<path fill="#EC008C" d="M34.703,38.741c-3.789,0-6.872-3.083-6.872-6.872c0-3.79,3.083-6.873,6.872-6.873
	c3.79,0,6.873,3.083,6.873,6.873C41.576,35.658,38.493,38.741,34.703,38.741z M34.703,25.997c-3.238,0-5.872,2.634-5.872,5.873
	c0,3.238,2.634,5.872,5.872,5.872c3.238,0,5.873-2.634,5.873-5.872C40.576,28.631,37.941,25.997,34.703,25.997z"/>
<path fill="#231F20" d="M27.856,31.382H17.553v1h10.304c-0.013-0.17-0.026-0.339-0.026-0.512
	C27.831,31.705,27.844,31.543,27.856,31.382z"/>
<path fill="#EC008C" d="M41.576,31.869"/>
<polyline fill="#231F20" points="41.553,32.382 44.125,32.382 44.125,21.388 40.368,14.009 30.125,14.009 30.125,15.009 
	39.755,15.009 43.125,21.629 43.125,31.382 41.553,31.382 "/>
<path fill="#EC008C" d="M40.018,36.22c-0.008,0.01-0.016,0.019-0.024,0.029C40.002,36.24,40.01,36.23,40.018,36.22z"/>
</svg>
