<?xml version="1.0" encoding="utf-8"?>
<!-- Generator: Adobe Illustrator 17.0.0, SVG Export Plug-In . SVG Version: 6.00 Build 0)  -->
<!DOCTYPE svg PUBLIC "-//W3C//DTD SVG 1.1//EN" "http://www.w3.org/Graphics/SVG/1.1/DTD/svg11.dtd">
<svg version="1.1" id="Layer_1" xmlns="http://www.w3.org/2000/svg" xmlns:xlink="http://www.w3.org/1999/xlink" x="0px" y="0px"
	 width="45px" height="45px" viewBox="0 0 45 45" enable-background="new 0 0 45 45" xml:space="preserve">
<g>
	<rect x="33.368" y="20.982" fill="#E233A6" width="1" height="15.25"/>
	<rect x="27.152" y="20.982" fill="#E233A6" width="1" height="15.25"/>
	<rect x="8.502" y="20.982" fill="#E233A6" width="1" height="15.25"/>
	<rect x="35.44" y="20.982" fill="#E233A6" width="1" height="15.25"/>
	<rect x="25.079" y="20.982" fill="#E233A6" width="1" height="15.25"/>
	<rect x="10.574" y="20.982" fill="#E233A6" width="1" height="15.25"/>
	<rect x="16.791" y="20.982" fill="#E233A6" width="1" height="15.25"/>
	<rect x="18.863" y="20.982" fill="#E233A6" width="1" height="15.25"/>
</g>
<path fill="#231F20" d="M41.417,18.347H3.592L22.504,5.018L41.417,18.347z M6.747,17.347h31.515L22.504,6.242L6.747,17.347z"/>
<g>
	<polygon fill="#231F20" points="8.502,20.982 9.502,20.982 10.574,20.982 11.574,20.982 16.791,20.982 17.791,20.982 
		18.863,20.982 19.863,20.982 25.079,20.982 26.079,20.982 27.152,20.982 28.152,20.982 33.368,20.982 34.368,20.982 35.44,20.982 
		36.44,20.982 39.333,20.982 41.461,20.982 41.461,19.982 3.544,19.982 3.544,20.982 6.52,20.982 	"/>
	<path fill="#231F20" d="M39.333,36.232H36.44h-1h-1.072h-1h-5.216h-1h-1.072h-1h-5.216h-1h-1.072h-1h-5.216h-1H9.502h-1H6.52H3.502
		v3.75h38v-3.75H39.333z M40.502,38.982h-36v-1.75h36V38.982z"/>
</g>
</svg>
