<?xml version="1.0" encoding="utf-8"?>
<!-- Generator: Adobe Illustrator 17.0.0, SVG Export Plug-In . SVG Version: 6.00 Build 0)  -->
<!DOCTYPE svg PUBLIC "-//W3C//DTD SVG 1.1//EN" "http://www.w3.org/Graphics/SVG/1.1/DTD/svg11.dtd">
<svg version="1.1" id="Layer_1" xmlns="http://www.w3.org/2000/svg" xmlns:xlink="http://www.w3.org/1999/xlink" x="0px" y="0px"
	 width="45px" height="45px" viewBox="0 0 45 45" enable-background="new 0 0 45 45" xml:space="preserve">
<path fill="#E233A6" d="M8.833,34.864H1.37v-14.5h7.463V34.864z M2.37,33.864h5.463v-12.5H2.37V33.864z"/>
<path fill="#231F20" d="M26.917,17.28c-3.125,0-5.667-2.542-5.667-5.667c0-3.125,2.542-5.667,5.667-5.667
	c3.125,0,5.667,2.542,5.667,5.667C32.583,14.738,30.042,17.28,26.917,17.28z M26.917,6.947c-2.573,0-4.667,2.094-4.667,4.667
	s2.094,4.667,4.667,4.667s4.667-2.093,4.667-4.667S29.49,6.947,26.917,6.947z"/>
<path fill="#231F20" d="M37.237,23.27c-2.298,0-4.167-1.869-4.167-4.167c0-2.297,1.869-4.167,4.167-4.167
	c2.297,0,4.167,1.869,4.167,4.167C41.403,21.401,39.534,23.27,37.237,23.27z M37.237,15.937c-1.746,0-3.167,1.42-3.167,3.167
	s1.421,3.167,3.167,3.167s3.167-1.421,3.167-3.167S38.983,15.937,37.237,15.937z"/>
<path fill="#231F20" d="M29.117,38.425l-1.646-0.007c-3.748,0-13.104-2.796-15.882-3.653l-0.901-0.284V21.005h18.289
	c1.833,0,2.661,1.723,2.842,2.634l0.021,0.168l0.003,2.238c0,1.441-1.112,2.41-2.768,2.41c-0.112,0-0.177-0.005-0.177-0.005
	l-3.396,0.003c1.844,0.981,3.544,1.478,5.069,1.478c3.146,0,5.162-2.124,6.634-3.674c0.976-1.019,1.672-1.747,2.574-1.911
	c1.737-0.306,3.342,0.621,4.097,2.179c0.499,1.029,0.451,2.081-0.128,2.814C37.827,37.769,31.052,38.425,29.117,38.425z
	 M11.687,33.748l0.112,0.036c5.739,1.77,12.804,3.634,15.673,3.634l1.644,0.007c1.813,0,8.169-0.626,13.83-8.684
	c0.353-0.448,0.358-1.105,0.03-1.781c-0.456-0.939-1.605-1.884-3.02-1.631c-0.582,0.106-1.184,0.735-2.017,1.606
	c-1.606,1.691-3.793,3.995-7.369,3.995c-2.14,0-4.55-0.86-7.164-2.556l-1.415-0.918l6.944-0.005l0.139,0.004
	c1.107,0,1.768-0.527,1.768-1.41l-0.011-2.251l0,0c-0.002,0-0.384-1.789-1.855-1.789H11.687V33.748z"/>
<path fill="#231F20" d="M34.066,22.049"/>
</svg>
