<?xml version="1.0" encoding="utf-8"?>
<!-- Generator: Adobe Illustrator 17.0.0, SVG Export Plug-In . SVG Version: 6.00 Build 0)  -->
<!DOCTYPE svg PUBLIC "-//W3C//DTD SVG 1.1//EN" "http://www.w3.org/Graphics/SVG/1.1/DTD/svg11.dtd">
<svg version="1.1" id="Layer_1" xmlns="http://www.w3.org/2000/svg" xmlns:xlink="http://www.w3.org/1999/xlink" x="0px" y="0px"
	 width="45px" height="45px" viewBox="0 0 45 45" enable-background="new 0 0 45 45" xml:space="preserve">
<path fill="#E233A6" d="M25.483,43.528l-3.972-4.119l-4.416,3.68l-2.109-5.349l-5.496,1.718l0.098-5.744l-5.689-0.539l2.256-5.248
	l-5.054-2.649l4.12-4.022l-3.682-4.418l5.351-2.11L5.223,9.28l5.691,0.098l0.54-5.742l5.251,2.307l2.698-5.1l3.976,4.123
	l4.414-3.629l2.109,5.299l5.496-1.668l-0.098,5.737l5.689,0.54l-2.256,5.247l5.058,2.652l-4.123,3.976l3.68,4.416l-5.352,2.111
	l1.667,5.494l-5.69-0.098l-0.54,5.689l-5.251-2.258L25.483,43.528z M21.585,38.046l3.663,3.798l2.484-4.653l4.834,2.078l0.498-5.244
	l5.243,0.09l-1.537-5.063l4.922-1.942l-3.389-4.067l3.794-3.659l-4.65-2.438l2.079-4.837l-5.244-0.498l0.09-5.29l-5.061,1.536
	l-1.943-4.88L23.3,6.325L19.641,2.53l-2.487,4.702L12.32,5.109l-0.497,5.285l-5.241-0.09l1.536,5.015l-4.923,1.942l3.388,4.065
	l-3.797,3.706l4.654,2.439L5.36,32.31l5.244,0.497l-0.09,5.285l5.061-1.582l1.943,4.926L21.585,38.046z"/>
<g>
	<g>
		<path fill="#231F20" d="M10.958,26.112h0.913v-3.357h3.255v-0.811h-3.255v-2.874h3.464V18.26h-4.377V26.112z M21.614,20.478
			c0-0.741-0.23-1.296-0.69-1.665c-0.46-0.369-1.172-0.553-2.135-0.553h-2.154v7.853h0.913v-3.266h1.638l1.901,3.266h1.08
			l-2.132-3.529C21.088,22.218,21.614,21.517,21.614,20.478z M18.799,22.063h-1.251V19.06h1.187c0.677,0,1.168,0.115,1.474,0.344
			c0.306,0.229,0.459,0.603,0.459,1.123c0,0.512-0.15,0.896-0.451,1.152C19.917,21.935,19.444,22.063,18.799,22.063z M23.435,26.112
			h4.377v-0.816h-3.464v-2.89h3.255v-0.806h-3.255v-2.53h3.464V18.26h-4.377V26.112z M33.93,19.071V18.26h-4.378v7.853h4.378v-0.816
			h-3.464v-2.89h3.255v-0.806h-3.255v-2.53H33.93z"/>
	</g>
</g>
</svg>
