<?xml version="1.0" encoding="utf-8"?>
<!-- Generator: Adobe Illustrator 17.0.0, SVG Export Plug-In . SVG Version: 6.00 Build 0)  -->
<!DOCTYPE svg PUBLIC "-//W3C//DTD SVG 1.1//EN" "http://www.w3.org/Graphics/SVG/1.1/DTD/svg11.dtd">
<svg version="1.1" id="Layer_1" xmlns="http://www.w3.org/2000/svg" xmlns:xlink="http://www.w3.org/1999/xlink" x="0px" y="0px"
	 width="45px" height="45px" viewBox="0 0 45 45" enable-background="new 0 0 45 45" xml:space="preserve">
<path fill="#231F20" d="M10.499,21.975c0,0.177-0.061,0.327-0.182,0.448c-0.122,0.121-0.275,0.182-0.462,0.182
	c-0.187,0-0.338-0.058-0.455-0.175s-0.175-0.268-0.175-0.455v-0.42c0-0.756-0.084-1.311-0.252-1.666
	c-0.168-0.354-0.397-0.637-0.686-0.847c-0.29-0.21-0.7-0.315-1.232-0.315H4.157v3.248c0,0.177-0.063,0.327-0.189,0.448
	c-0.126,0.121-0.278,0.182-0.455,0.182s-0.327-0.061-0.448-0.182c-0.122-0.122-0.182-0.271-0.182-0.448v-8.568
	c0-0.177,0.061-0.329,0.182-0.455c0.121-0.126,0.271-0.189,0.448-0.189h3.262c1.279,0,2.245,0.271,2.898,0.812
	c0.606,0.513,0.91,1.19,0.91,2.03c0,0.542-0.152,1.045-0.455,1.512s-0.763,0.808-1.379,1.022c0.672,0.177,1.157,0.663,1.456,1.456
	c0.196,0.532,0.294,1.111,0.294,1.736V21.975z M6.691,17.523c0.784,0,1.416-0.154,1.897-0.462c0.48-0.308,0.721-0.76,0.721-1.358
	c0-0.56-0.187-0.98-0.56-1.26c-0.448-0.317-1.158-0.476-2.128-0.476H4.157v3.556H6.691z"/>
<path fill="#231F20" d="M16.54,12.623c1.283,0,2.315,0.472,3.095,1.414c0.755,0.924,1.149,2.128,1.182,3.612
	c-0.033,1.484-0.427,2.688-1.182,3.612c-0.78,0.943-1.812,1.414-3.095,1.414c-1.292,0-2.323-0.471-3.095-1.414
	c-0.772-0.933-1.166-2.137-1.182-3.612c0.016-1.474,0.41-2.678,1.182-3.612C14.216,13.095,15.248,12.623,16.54,12.623z
	 M16.54,21.485c0.991,0,1.771-0.369,2.34-1.106c0.552-0.709,0.829-1.62,0.829-2.73c0-1.11-0.276-2.021-0.829-2.73
	c-0.569-0.737-1.348-1.106-2.34-1.106s-1.771,0.369-2.34,1.106c-0.552,0.709-0.829,1.62-0.829,2.73c0,1.111,0.276,2.021,0.829,2.73
	C14.769,21.117,15.549,21.485,16.54,21.485z"/>
<path fill="#231F20" d="M29.275,15.297c0,1.008-0.458,1.727-1.372,2.156c0.886,0.299,1.475,0.789,1.764,1.47
	c0.103,0.261,0.154,0.574,0.154,0.938c0,0.364-0.065,0.714-0.196,1.05s-0.341,0.625-0.63,0.868
	c-0.597,0.504-1.521,0.756-2.772,0.756h-3.388c-0.177,0-0.327-0.061-0.448-0.182c-0.122-0.121-0.182-0.271-0.182-0.448v-8.498
	c0-0.177,0.061-0.329,0.182-0.455c0.121-0.126,0.271-0.189,0.448-0.189h3.304c1.026,0,1.806,0.233,2.338,0.7
	C29.009,13.93,29.275,14.541,29.275,15.297z M28.057,15.395c0-0.438-0.175-0.789-0.525-1.05s-0.847-0.392-1.491-0.392h-2.562v3.038
	h2.324c1.204,0,1.922-0.322,2.156-0.966C28.024,15.829,28.057,15.619,28.057,15.395z M26.097,21.345
	c1.325,0,2.114-0.317,2.366-0.952c0.084-0.196,0.126-0.415,0.126-0.658c0-0.56-0.21-0.966-0.63-1.218
	c-0.42-0.252-1.036-0.378-1.848-0.378h-2.632v3.206H26.097z"/>
<path fill="#231F20" d="M35.596,12.623c1.283,0,2.315,0.472,3.095,1.414c0.755,0.924,1.149,2.128,1.182,3.612
	c-0.033,1.484-0.427,2.688-1.182,3.612c-0.78,0.943-1.812,1.414-3.095,1.414c-1.292,0-2.323-0.471-3.095-1.414
	c-0.772-0.933-1.166-2.137-1.182-3.612c0.016-1.474,0.41-2.678,1.182-3.612C33.273,13.095,34.304,12.623,35.596,12.623z
	 M35.596,21.485c0.991,0,1.771-0.369,2.34-1.106c0.552-0.709,0.829-1.62,0.829-2.73c0-1.11-0.276-2.021-0.829-2.73
	c-0.569-0.737-1.348-1.106-2.34-1.106s-1.771,0.369-2.34,1.106c-0.552,0.709-0.829,1.62-0.829,2.73c0,1.111,0.276,2.021,0.829,2.73
	C33.825,21.117,34.605,21.485,35.596,21.485z"/>
<path fill="#E233A6" d="M7.448,32.383c0.103,0.131,0.154,0.275,0.154,0.434s-0.059,0.296-0.175,0.413
	c-0.117,0.117-0.273,0.175-0.469,0.175c-0.196,0-0.354-0.084-0.476-0.252L2.87,28.547l-1.596,1.61v2.618
	c0,0.177-0.063,0.327-0.189,0.448c-0.126,0.121-0.278,0.182-0.455,0.182s-0.327-0.061-0.448-0.182C0.061,33.102,0,32.952,0,32.775
	v-8.638c0-0.177,0.061-0.329,0.182-0.455c0.121-0.126,0.271-0.189,0.448-0.189s0.329,0.063,0.455,0.189s0.189,0.278,0.189,0.455
	v4.452l4.788-4.872c0.121-0.149,0.273-0.224,0.455-0.224s0.329,0.054,0.441,0.161c0.112,0.107,0.168,0.248,0.168,0.42
	c0,0.173-0.051,0.311-0.154,0.413l-3.234,3.22L7.448,32.383z"/>
<path fill="#E233A6" d="M17.36,32.495c0.047,0.112,0.07,0.231,0.07,0.357s-0.056,0.25-0.168,0.371
	c-0.112,0.121-0.29,0.182-0.532,0.182s-0.42-0.13-0.532-0.392l-0.91-2.184h-4.76l-0.91,2.184c-0.112,0.261-0.29,0.392-0.532,0.392
	s-0.42-0.061-0.532-0.182c-0.112-0.122-0.168-0.245-0.168-0.371s0.023-0.245,0.07-0.357l3.57-8.428
	c0.168-0.382,0.438-0.574,0.812-0.574h0.14c0.373,0,0.644,0.191,0.812,0.574L17.36,32.495z M14.798,29.667l-1.89-4.55l-1.89,4.55
	H14.798z"/>
<path fill="#E233A6" d="M22.092,32.271c1.633,0,2.45-0.537,2.45-1.61c0-0.448-0.313-0.807-0.938-1.078
	c-0.271-0.112-0.586-0.212-0.945-0.301c-0.359-0.088-0.723-0.184-1.092-0.287c-0.369-0.103-0.733-0.219-1.092-0.35
	s-0.679-0.299-0.959-0.504c-0.616-0.467-0.924-1.083-0.924-1.848c0-0.821,0.308-1.493,0.924-2.016
	c0.672-0.569,1.573-0.854,2.702-0.854c1.017,0,1.946,0.154,2.786,0.462c0.261,0.094,0.392,0.28,0.392,0.56
	c0,0.14-0.049,0.273-0.147,0.399c-0.098,0.126-0.206,0.189-0.322,0.189s-0.278-0.038-0.483-0.112
	c-0.607-0.214-1.302-0.322-2.086-0.322c-0.719,0-1.312,0.135-1.778,0.406c-0.476,0.28-0.714,0.677-0.714,1.19
	c0,0.532,0.308,0.934,0.924,1.204c0.28,0.131,0.598,0.238,0.952,0.322c0.354,0.084,0.719,0.172,1.092,0.266
	c0.373,0.094,0.737,0.203,1.092,0.329c0.354,0.126,0.672,0.292,0.952,0.497c0.616,0.448,0.924,1.092,0.924,1.932
	c0,0.803-0.322,1.456-0.966,1.96c-0.663,0.513-1.536,0.77-2.618,0.77c-1.186,0-2.296-0.224-3.332-0.672
	c-0.103-0.046-0.194-0.121-0.273-0.224c-0.08-0.103-0.119-0.227-0.119-0.371s0.051-0.275,0.154-0.392
	c0.103-0.117,0.221-0.175,0.357-0.175c0.135,0,0.303,0.044,0.504,0.133c0.201,0.089,0.53,0.194,0.987,0.315
	C20.953,32.21,21.485,32.271,22.092,32.271z"/>
<path fill="#E233A6" d="M30.716,32.271c1.633,0,2.45-0.537,2.45-1.61c0-0.448-0.313-0.807-0.938-1.078
	c-0.271-0.112-0.586-0.212-0.945-0.301c-0.359-0.088-0.723-0.184-1.092-0.287c-0.369-0.103-0.733-0.219-1.092-0.35
	s-0.679-0.299-0.959-0.504c-0.616-0.467-0.924-1.083-0.924-1.848c0-0.821,0.308-1.493,0.924-2.016
	c0.672-0.569,1.573-0.854,2.702-0.854c1.017,0,1.946,0.154,2.786,0.462c0.261,0.094,0.392,0.28,0.392,0.56
	c0,0.14-0.049,0.273-0.147,0.399c-0.098,0.126-0.206,0.189-0.322,0.189s-0.278-0.038-0.483-0.112
	c-0.607-0.214-1.302-0.322-2.086-0.322c-0.719,0-1.312,0.135-1.778,0.406c-0.476,0.28-0.714,0.677-0.714,1.19
	c0,0.532,0.308,0.934,0.924,1.204c0.28,0.131,0.598,0.238,0.952,0.322c0.354,0.084,0.719,0.172,1.092,0.266
	c0.373,0.094,0.737,0.203,1.092,0.329c0.354,0.126,0.672,0.292,0.952,0.497c0.616,0.448,0.924,1.092,0.924,1.932
	c0,0.803-0.322,1.456-0.966,1.96c-0.663,0.513-1.536,0.77-2.618,0.77c-1.186,0-2.296-0.224-3.332-0.672
	c-0.103-0.046-0.194-0.121-0.273-0.224c-0.08-0.103-0.119-0.227-0.119-0.371s0.051-0.275,0.154-0.392
	c0.103-0.117,0.221-0.175,0.357-0.175c0.135,0,0.303,0.044,0.504,0.133c0.201,0.089,0.53,0.194,0.987,0.315
	C29.577,32.21,30.109,32.271,30.716,32.271z"/>
<path fill="#E233A6" d="M44.366,32.495c0.047,0.112,0.07,0.231,0.07,0.357s-0.056,0.25-0.168,0.371
	c-0.112,0.121-0.29,0.182-0.532,0.182s-0.42-0.13-0.532-0.392l-0.91-2.184h-4.76l-0.91,2.184c-0.112,0.261-0.29,0.392-0.532,0.392
	s-0.42-0.061-0.532-0.182c-0.112-0.122-0.168-0.245-0.168-0.371s0.023-0.245,0.07-0.357l3.57-8.428
	c0.168-0.382,0.438-0.574,0.812-0.574h0.14c0.373,0,0.644,0.191,0.812,0.574L44.366,32.495z M41.804,29.667l-1.89-4.55l-1.89,4.55
	H41.804z"/>
</svg>
