<?xml version="1.0" encoding="utf-8"?>
<!-- Generator: Adobe Illustrator 17.0.0, SVG Export Plug-In . SVG Version: 6.00 Build 0)  -->
<!DOCTYPE svg PUBLIC "-//W3C//DTD SVG 1.1//EN" "http://www.w3.org/Graphics/SVG/1.1/DTD/svg11.dtd">
<svg version="1.1" id="Layer_1" xmlns="http://www.w3.org/2000/svg" xmlns:xlink="http://www.w3.org/1999/xlink" x="0px" y="0px"
	 width="24px" height="24px" viewBox="0 0 24 24" enable-background="new 0 0 24 24" xml:space="preserve">
<path fill="#929292" d="M18.606,17.442l0.065-0.072c1.681-1.852,2.606-4.196,2.606-6.6C21.276,5.255,16.682,0.767,11.036,0.767
	S0.796,5.255,0.796,10.77c0,5.515,4.593,10.003,10.24,10.003c2.203,0,4.328-0.709,6.144-2.051l0.069-0.051l0.061,0.06l4.605,4.502
	l1.289-1.298L18.606,17.442z M11.037,18.967c-4.625,0-8.388-3.677-8.388-8.197c0-4.521,3.763-8.199,8.388-8.199
	s8.388,3.678,8.388,8.199C19.425,15.29,15.662,18.967,11.037,18.967z"/>
</svg>
