<?xml version="1.0" encoding="utf-8"?>
<!-- Generator: Adobe Illustrator 17.0.0, SVG Export Plug-In . SVG Version: 6.00 Build 0)  -->
<!DOCTYPE svg PUBLIC "-//W3C//DTD SVG 1.1//EN" "http://www.w3.org/Graphics/SVG/1.1/DTD/svg11.dtd">
<svg version="1.1" id="Layer_1" xmlns="http://www.w3.org/2000/svg" xmlns:xlink="http://www.w3.org/1999/xlink" x="0px" y="0px"
	 width="22px" height="22px" viewBox="0 0 22 22" enable-background="new 0 0 22 22" xml:space="preserve">
<path fill-rule="evenodd" clip-rule="evenodd" fill="#929292" d="M16.925,15.773c1.426-1.572,2.319-3.614,2.319-5.874
	c-0.001-4.909-4.088-8.902-9.112-8.902c-5.023,0-9.111,3.993-9.111,8.902c0,4.908,4.087,8.901,9.111,8.901
	c2.059,0,3.938-0.695,5.466-1.824l4.12,4.028l1.261-1.269L16.925,15.773z M10.133,17.031c-4.026,0-7.301-3.199-7.301-7.133
	c0-3.933,3.275-7.135,7.301-7.135c4.027,0,7.302,3.201,7.302,7.135S14.159,17.031,10.133,17.031z"/>
</svg>
