<?xml version="1.0" encoding="utf-8"?>
<!-- Generator: Adobe Illustrator 17.0.0, SVG Export Plug-In . SVG Version: 6.00 Build 0)  -->
<!DOCTYPE svg PUBLIC "-//W3C//DTD SVG 1.1//EN" "http://www.w3.org/Graphics/SVG/1.1/DTD/svg11.dtd">
<svg version="1.1" id="Layer_1" xmlns="http://www.w3.org/2000/svg" xmlns:xlink="http://www.w3.org/1999/xlink" x="0px" y="0px"
	 width="22px" height="22px" viewBox="0 0 22 22" enable-background="new 0 0 22 22" xml:space="preserve">
<path fill="#5E2670" d="M575.777,287.145c-3.168,0-6.407-1.213-8.888-3.329l0,0l0-0.001c-0.002-0.001-0.004-0.003-0.006-0.004
	c-0.002-0.002-0.004-0.003-0.005-0.005v0c0,0,0,0,0,0l0,0c0,0,0,0-0.001,0l0,0l0,0c-0.001-0.001-0.002-0.002-0.003-0.003
	l-0.078-0.066l-0.005-0.108c-0.024-0.499,0.014-1.063,0.115-1.677c0.286-1.5,1.229-4.244,4.346-6.096
	c-0.657-0.973-1.003-2.063-1.003-3.169c0-3.049,2.48-5.529,5.529-5.529s5.529,2.48,5.529,5.529c0,1.161-0.352,2.277-0.995,3.175
	c3.036,1.827,4.023,4.577,4.343,6.079c0.005,0.025,0.144,0.665,0.172,1.612l0.003,0.124l-0.096,0.078
	c-0.025,0.021-0.1,0.086-0.177,0.154l-0.193,0.167C581.916,286.056,578.868,287.145,575.777,287.145z M584.228,283.531
	 M568.493,282.925c2.081,1.636,4.595,2.5,7.278,2.5c2.629,0,5.209-0.898,7.294-2.533c-0.151-1.268-0.849-4.062-4.011-5.755
	c-0.973,0.714-2.141,1.105-3.308,1.105c-1.189,0-2.317-0.37-3.274-1.071C569.175,278.923,568.594,281.866,568.493,282.925z
	 M575.746,268.906c-2.101,0-3.811,1.709-3.811,3.811c0,2.102,1.709,3.811,3.811,3.811s3.811-1.709,3.811-3.811
	C579.557,270.616,577.847,268.906,575.746,268.906z"/>
<path fill="#5E2670" d="M10.971,20.994c-3.168,0-6.407-1.213-8.888-3.329l0,0l0-0.001c-0.002-0.001-0.004-0.003-0.006-0.004
	c-0.002-0.002-0.004-0.003-0.005-0.005v0c0,0,0,0,0,0l0,0c0,0,0,0-0.001,0l0,0l0,0c-0.001-0.001-0.002-0.002-0.003-0.003
	l-0.078-0.066l-0.005-0.108c-0.024-0.499,0.014-1.063,0.115-1.677c0.286-1.5,1.229-4.244,4.346-6.096
	C5.788,8.732,5.442,7.642,5.442,6.535c0-3.049,2.48-5.529,5.529-5.529S16.5,3.486,16.5,6.535c0,1.161-0.352,2.277-0.995,3.175
	c3.036,1.827,4.023,4.577,4.343,6.079c0.005,0.025,0.144,0.665,0.172,1.612l0.003,0.124l-0.096,0.078
	c-0.025,0.021-0.1,0.086-0.177,0.154l-0.193,0.167C17.11,19.905,14.062,20.994,10.971,20.994z M19.422,17.38 M3.687,16.775
	c2.081,1.636,4.595,2.5,7.278,2.5c2.629,0,5.209-0.898,7.294-2.533c-0.151-1.268-0.849-4.062-4.011-5.755
	c-0.973,0.714-2.141,1.105-3.308,1.105c-1.189,0-2.317-0.37-3.274-1.071C4.368,12.772,3.787,15.715,3.687,16.775z M10.94,2.756
	c-2.101,0-3.811,1.709-3.811,3.811c0,2.102,1.709,3.811,3.811,3.811s3.811-1.709,3.811-3.811C14.75,4.465,13.041,2.756,10.94,2.756z
	"/>
</svg>
