<?xml version="1.0" encoding="utf-8"?>
<!-- Generator: Adobe Illustrator 17.0.0, SVG Export Plug-In . SVG Version: 6.00 Build 0)  -->
<!DOCTYPE svg PUBLIC "-//W3C//DTD SVG 1.1//EN" "http://www.w3.org/Graphics/SVG/1.1/DTD/svg11.dtd">
<svg version="1.1" id="Layer_1" xmlns="http://www.w3.org/2000/svg" xmlns:xlink="http://www.w3.org/1999/xlink" x="0px" y="0px"
	 width="24px" height="24px" viewBox="0 0 24 24" enable-background="new 0 0 24 24" xml:space="preserve">
<path fill="#5E2670" d="M21.923,17.446c-0.355-1.667-1.459-4.767-4.872-6.821l-0.093-0.056l0.064-0.089
	c0.714-0.997,1.108-2.253,1.108-3.537c0-3.398-2.764-6.162-6.161-6.162c-3.398,0-6.162,2.764-6.162,6.162
	c0,1.227,0.387,2.449,1.119,3.533l0.059,0.089L6.893,10.62c-3.504,2.081-4.558,5.176-4.875,6.836
	c-0.113,0.685-0.156,1.316-0.129,1.875l0.003,0.079l0.031,0.026h0.02l0.022,0.035l0.001,0.001c2.791,2.381,6.436,3.746,10,3.746
	c3.478,0,6.908-1.227,9.661-3.454l0.216-0.188c0.088-0.077,0.174-0.152,0.203-0.176l0.07-0.057l-0.002-0.09
	C22.085,18.235,21.94,17.524,21.923,17.446z M11.932,2.562c2.435,0,4.417,1.981,4.417,4.417s-1.981,4.417-4.417,4.417
	S7.516,9.414,7.516,6.979S9.497,2.562,11.932,2.562z M20.283,18.583c-2.376,1.864-5.333,2.89-8.323,2.89
	c-3.058,0-5.93-0.987-8.305-2.853l-0.043-0.034l0.005-0.055c0.126-1.322,0.822-4.611,4.56-6.595l0.056-0.03l0.051,0.037
	c1.065,0.78,2.326,1.193,3.648,1.193c1.296,0,2.605-0.438,3.687-1.232l0.051-0.038l0.056,0.03c3.672,1.967,4.437,5.268,4.595,6.595
	l0.007,0.056L20.283,18.583z"/>
</svg>
